<mxfile host="65bd71144e">
    <diagram name="Страница 1" id="CcrQht6WVvP3Z8OTykGC">
        <mxGraphModel dx="1120" dy="511" grid="1" gridSize="10" guides="1" tooltips="1" connect="1" arrows="1" fold="1" page="1" pageScale="1" pageWidth="827" pageHeight="1169" math="0" shadow="0">
            <root>
                <mxCell id="0"/>
                <mxCell id="1" parent="0"/>
                <mxCell id="7VZFVEzlyBndeP7-EaXm-3" value="" style="edgeStyle=orthogonalEdgeStyle;rounded=0;orthogonalLoop=1;jettySize=auto;html=1;" parent="1" target="7VZFVEzlyBndeP7-EaXm-2" edge="1">
                    <mxGeometry relative="1" as="geometry">
                        <mxPoint x="240" y="130" as="sourcePoint"/>
                    </mxGeometry>
                </mxCell>
                <mxCell id="7VZFVEzlyBndeP7-EaXm-5" value="" style="edgeStyle=orthogonalEdgeStyle;rounded=0;orthogonalLoop=1;jettySize=auto;html=1;" parent="1" source="7VZFVEzlyBndeP7-EaXm-2" edge="1">
                    <mxGeometry relative="1" as="geometry">
                        <mxPoint x="240" y="280" as="targetPoint"/>
                    </mxGeometry>
                </mxCell>
                <mxCell id="7VZFVEzlyBndeP7-EaXm-2" value="&lt;font style=&quot;font-size: 15px;&quot;&gt;input:&lt;br&gt;sourceArray[]&lt;/font&gt;" style="shape=parallelogram;perimeter=parallelogramPerimeter;whiteSpace=wrap;html=1;fixedSize=1;" parent="1" vertex="1">
                    <mxGeometry x="165" y="170" width="150" height="70" as="geometry"/>
                </mxCell>
                <mxCell id="7VZFVEzlyBndeP7-EaXm-7" value="" style="edgeStyle=orthogonalEdgeStyle;rounded=0;orthogonalLoop=1;jettySize=auto;html=1;entryX=0.5;entryY=0;entryDx=0;entryDy=0;" parent="1" source="7VZFVEzlyBndeP7-EaXm-4" target="7VZFVEzlyBndeP7-EaXm-15" edge="1">
                    <mxGeometry relative="1" as="geometry">
                        <mxPoint x="240" y="540" as="targetPoint"/>
                    </mxGeometry>
                </mxCell>
                <mxCell id="7VZFVEzlyBndeP7-EaXm-4" value="&lt;font style=&quot;font-size: 14px;&quot;&gt;i &amp;lt; sourceArray.Lenght&lt;/font&gt;" style="rhombus;whiteSpace=wrap;html=1;" parent="1" vertex="1">
                    <mxGeometry x="140" y="400" width="200" height="100" as="geometry"/>
                </mxCell>
                <mxCell id="7VZFVEzlyBndeP7-EaXm-26" value="" style="edgeStyle=orthogonalEdgeStyle;rounded=0;orthogonalLoop=1;jettySize=auto;html=1;fontSize=14;entryX=0;entryY=0.5;entryDx=0;entryDy=0;" parent="1" source="7VZFVEzlyBndeP7-EaXm-8" target="7VZFVEzlyBndeP7-EaXm-27" edge="1">
                    <mxGeometry relative="1" as="geometry">
                        <mxPoint x="670" y="445" as="targetPoint"/>
                    </mxGeometry>
                </mxCell>
                <mxCell id="7VZFVEzlyBndeP7-EaXm-8" value="&lt;font style=&quot;font-size: 14px;&quot;&gt;output:&lt;br&gt;sourceArray[];&lt;br&gt;newArray[];&lt;/font&gt;" style="shape=parallelogram;perimeter=parallelogramPerimeter;whiteSpace=wrap;html=1;fixedSize=1;" parent="1" vertex="1">
                    <mxGeometry x="410" y="550" width="160" height="80" as="geometry"/>
                </mxCell>
                <mxCell id="7VZFVEzlyBndeP7-EaXm-10" style="edgeStyle=orthogonalEdgeStyle;rounded=0;orthogonalLoop=1;jettySize=auto;html=1;exitX=0.5;exitY=1;exitDx=0;exitDy=0;" parent="1" edge="1">
                    <mxGeometry relative="1" as="geometry">
                        <mxPoint x="240" y="130" as="sourcePoint"/>
                        <mxPoint x="240" y="130" as="targetPoint"/>
                    </mxGeometry>
                </mxCell>
                <mxCell id="7VZFVEzlyBndeP7-EaXm-14" value="" style="edgeStyle=orthogonalEdgeStyle;rounded=0;orthogonalLoop=1;jettySize=auto;html=1;" parent="1" source="7VZFVEzlyBndeP7-EaXm-13" target="7VZFVEzlyBndeP7-EaXm-4" edge="1">
                    <mxGeometry relative="1" as="geometry"/>
                </mxCell>
                <mxCell id="7VZFVEzlyBndeP7-EaXm-13" value="&lt;font style=&quot;font-size: 15px;&quot;&gt;i = 0;&lt;br&gt;index = 0;&lt;br&gt;newArray.Lenght = 0;&lt;/font&gt;" style="rounded=0;whiteSpace=wrap;html=1;" parent="1" vertex="1">
                    <mxGeometry x="165" y="280" width="150" height="80" as="geometry"/>
                </mxCell>
                <mxCell id="7VZFVEzlyBndeP7-EaXm-17" value="" style="edgeStyle=orthogonalEdgeStyle;rounded=0;orthogonalLoop=1;jettySize=auto;html=1;" parent="1" source="7VZFVEzlyBndeP7-EaXm-15" target="7VZFVEzlyBndeP7-EaXm-16" edge="1">
                    <mxGeometry relative="1" as="geometry"/>
                </mxCell>
                <mxCell id="3" style="edgeStyle=none;html=1;" parent="1" source="7VZFVEzlyBndeP7-EaXm-15" edge="1">
                    <mxGeometry relative="1" as="geometry">
                        <mxPoint x="40" y="590" as="targetPoint"/>
                    </mxGeometry>
                </mxCell>
                <mxCell id="7VZFVEzlyBndeP7-EaXm-15" value="&lt;font style=&quot;font-size: 14px;&quot;&gt;sourceArray[i] &amp;lt;=3&lt;/font&gt;" style="rhombus;whiteSpace=wrap;html=1;" parent="1" vertex="1">
                    <mxGeometry x="150" y="540" width="180" height="100" as="geometry"/>
                </mxCell>
                <mxCell id="7VZFVEzlyBndeP7-EaXm-21" style="edgeStyle=orthogonalEdgeStyle;rounded=0;orthogonalLoop=1;jettySize=auto;html=1;exitX=0;exitY=0.5;exitDx=0;exitDy=0;entryX=0;entryY=0.5;entryDx=0;entryDy=0;" parent="1" source="7VZFVEzlyBndeP7-EaXm-16" target="7VZFVEzlyBndeP7-EaXm-4" edge="1">
                    <mxGeometry relative="1" as="geometry">
                        <Array as="points">
                            <mxPoint x="40" y="725"/>
                            <mxPoint x="40" y="450"/>
                        </Array>
                    </mxGeometry>
                </mxCell>
                <mxCell id="7VZFVEzlyBndeP7-EaXm-16" value="&lt;font style=&quot;font-size: 14px;&quot;&gt;newArray.Lenght++;&lt;br&gt;newArray[index] = sourceArray[i];&lt;br&gt;i++;&lt;br&gt;index++;&lt;/font&gt;" style="whiteSpace=wrap;html=1;" parent="1" vertex="1">
                    <mxGeometry x="130" y="680" width="220" height="90" as="geometry"/>
                </mxCell>
                <mxCell id="7VZFVEzlyBndeP7-EaXm-22" style="edgeStyle=orthogonalEdgeStyle;rounded=0;orthogonalLoop=1;jettySize=auto;html=1;exitX=0.5;exitY=1;exitDx=0;exitDy=0;" parent="1" edge="1">
                    <mxGeometry relative="1" as="geometry">
                        <mxPoint x="240" y="130" as="sourcePoint"/>
                        <mxPoint x="240" y="130" as="targetPoint"/>
                    </mxGeometry>
                </mxCell>
                <mxCell id="7VZFVEzlyBndeP7-EaXm-24" value="START" style="ellipse;whiteSpace=wrap;html=1;fontSize=14;" parent="1" vertex="1">
                    <mxGeometry x="180" y="50" width="120" height="80" as="geometry"/>
                </mxCell>
                <mxCell id="7VZFVEzlyBndeP7-EaXm-27" value="END" style="ellipse;whiteSpace=wrap;html=1;fontSize=14;" parent="1" vertex="1">
                    <mxGeometry x="650" y="550" width="120" height="80" as="geometry"/>
                </mxCell>
                <mxCell id="2" value="NO" style="text;html=1;align=center;verticalAlign=middle;resizable=0;points=[];autosize=1;strokeColor=none;fillColor=none;" parent="1" vertex="1">
                    <mxGeometry x="340" y="420" width="40" height="30" as="geometry"/>
                </mxCell>
                <mxCell id="4" value="NO" style="text;html=1;align=center;verticalAlign=middle;resizable=0;points=[];autosize=1;strokeColor=none;fillColor=none;" parent="1" vertex="1">
                    <mxGeometry x="80" y="550" width="40" height="30" as="geometry"/>
                </mxCell>
                <mxCell id="5" value="YES" style="text;html=1;align=center;verticalAlign=middle;resizable=0;points=[];autosize=1;strokeColor=none;fillColor=none;" parent="1" vertex="1">
                    <mxGeometry x="245" y="500" width="50" height="30" as="geometry"/>
                </mxCell>
                <mxCell id="6" value="YES" style="text;html=1;align=center;verticalAlign=middle;resizable=0;points=[];autosize=1;strokeColor=none;fillColor=none;" parent="1" vertex="1">
                    <mxGeometry x="250" y="640" width="50" height="30" as="geometry"/>
                </mxCell>
                <mxCell id="7" value="&lt;span style=&quot;font-size: 14px;&quot;&gt;newArray.Lenght &amp;gt; 0&lt;/span&gt;" style="rhombus;whiteSpace=wrap;html=1;" parent="1" vertex="1">
                    <mxGeometry x="390" y="400" width="200" height="100" as="geometry"/>
                </mxCell>
                <mxCell id="9" value="" style="edgeStyle=none;orthogonalLoop=1;jettySize=auto;html=1;" parent="1" edge="1">
                    <mxGeometry width="100" relative="1" as="geometry">
                        <mxPoint x="340" y="450" as="sourcePoint"/>
                        <mxPoint x="390" y="450" as="targetPoint"/>
                        <Array as="points"/>
                    </mxGeometry>
                </mxCell>
                <mxCell id="12" value="&lt;font style=&quot;font-size: 14px;&quot;&gt;output:&lt;br&gt;sourceArray[];&lt;br&gt;text;&lt;/font&gt;" style="shape=parallelogram;perimeter=parallelogramPerimeter;whiteSpace=wrap;html=1;fixedSize=1;" parent="1" vertex="1">
                    <mxGeometry x="630" y="410" width="160" height="80" as="geometry"/>
                </mxCell>
                <mxCell id="13" value="" style="edgeStyle=none;orthogonalLoop=1;jettySize=auto;html=1;exitX=0.5;exitY=1;exitDx=0;exitDy=0;entryX=0.5;entryY=0;entryDx=0;entryDy=0;" parent="1" source="7" target="7VZFVEzlyBndeP7-EaXm-8" edge="1">
                    <mxGeometry width="100" relative="1" as="geometry">
                        <mxPoint x="430" y="790" as="sourcePoint"/>
                        <mxPoint x="530" y="790" as="targetPoint"/>
                        <Array as="points"/>
                    </mxGeometry>
                </mxCell>
                <mxCell id="14" value="YES" style="text;html=1;align=center;verticalAlign=middle;resizable=0;points=[];autosize=1;strokeColor=none;fillColor=none;" parent="1" vertex="1">
                    <mxGeometry x="440" y="500" width="50" height="30" as="geometry"/>
                </mxCell>
                <mxCell id="15" value="NO" style="text;html=1;align=center;verticalAlign=middle;resizable=0;points=[];autosize=1;strokeColor=none;fillColor=none;" parent="1" vertex="1">
                    <mxGeometry x="590" y="420" width="40" height="30" as="geometry"/>
                </mxCell>
                <mxCell id="16" value="" style="edgeStyle=none;orthogonalLoop=1;jettySize=auto;html=1;exitX=1;exitY=0.5;exitDx=0;exitDy=0;entryX=0;entryY=0.5;entryDx=0;entryDy=0;" parent="1" source="7" target="12" edge="1">
                    <mxGeometry width="100" relative="1" as="geometry">
                        <mxPoint x="560" y="500" as="sourcePoint"/>
                        <mxPoint x="660" y="500" as="targetPoint"/>
                        <Array as="points"/>
                    </mxGeometry>
                </mxCell>
                <mxCell id="17" value="" style="edgeStyle=none;orthogonalLoop=1;jettySize=auto;html=1;entryX=0.5;entryY=0;entryDx=0;entryDy=0;exitX=0.5;exitY=1;exitDx=0;exitDy=0;" parent="1" source="12" target="7VZFVEzlyBndeP7-EaXm-27" edge="1">
                    <mxGeometry width="100" relative="1" as="geometry">
                        <mxPoint x="570" y="520" as="sourcePoint"/>
                        <mxPoint x="670" y="520" as="targetPoint"/>
                        <Array as="points"/>
                    </mxGeometry>
                </mxCell>
            </root>
        </mxGraphModel>
    </diagram>
</mxfile>